<svg width="257" height="174" viewBox="0 0 257 174" fill="none" xmlns="http://www.w3.org/2000/svg">
<g id="atoms/image/rombos-shadow">
<g id="atoms/image/rombos-shadow_2" filter="url(#filter0_d_10_237)">
<mask id="path-1-inside-1_10_237" fill="white">
<path fill-rule="evenodd" clip-rule="evenodd" d="M79.0578 0.608939C80.0145 0.0560475 81.2385 0.384343 81.7909 1.34198L105.473 42.4016L140.922 21.915C141.879 21.3621 143.103 21.6904 143.655 22.648L167.338 63.7082L202.787 43.2217C203.743 42.6688 204.967 42.9971 205.52 43.9547L250.388 121.747C250.94 122.703 250.613 123.926 249.657 124.478L171.942 169.391C170.985 169.944 169.761 169.616 169.209 168.658L145.526 127.597L110.077 148.084C109.12 148.637 107.896 148.309 107.344 147.351L83.6619 106.292L48.2135 126.778C47.2568 127.331 46.0328 127.003 45.4804 126.045L0.611558 48.2533C0.0598804 47.2968 0.387088 46.0744 1.34262 45.5222L79.0578 0.608939Z"/>
</mask>
<path fill-rule="evenodd" clip-rule="evenodd" d="M79.0578 0.608939C80.0145 0.0560475 81.2385 0.384343 81.7909 1.34198L105.473 42.4016L140.922 21.915C141.879 21.3621 143.103 21.6904 143.655 22.648L167.338 63.7082L202.787 43.2217C203.743 42.6688 204.967 42.9971 205.52 43.9547L250.388 121.747C250.94 122.703 250.613 123.926 249.657 124.478L171.942 169.391C170.985 169.944 169.761 169.616 169.209 168.658L145.526 127.597L110.077 148.084C109.12 148.637 107.896 148.309 107.344 147.351L83.6619 106.292L48.2135 126.778C47.2568 127.331 46.0328 127.003 45.4804 126.045L0.611558 48.2533C0.0598804 47.2968 0.387088 46.0744 1.34262 45.5222L79.0578 0.608939Z" fill="#5C5CBC"/>
<path d="M81.7909 1.34198L79.1921 2.84087L79.1921 2.84087L81.7909 1.34198ZM79.0578 0.608939L77.5567 -1.9885L77.5567 -1.98849L79.0578 0.608939ZM105.473 42.4016L102.874 43.9004L104.375 46.5014L106.974 44.999L105.473 42.4016ZM140.922 21.915L142.423 24.5124L140.922 21.915ZM143.655 22.648L146.254 21.1491L146.254 21.1491L143.655 22.648ZM167.338 63.7082L164.739 65.2071L166.239 67.8081L168.839 66.3057L167.338 63.7082ZM202.787 43.2217L201.285 40.6242L201.285 40.6242L202.787 43.2217ZM205.52 43.9547L202.921 45.4536L202.921 45.4536L205.52 43.9547ZM250.388 121.747L247.79 123.246V123.246L250.388 121.747ZM249.657 124.478L248.156 121.88H248.156L249.657 124.478ZM171.942 169.391L170.441 166.794L171.942 169.391ZM169.209 168.658L166.61 170.157V170.157L169.209 168.658ZM145.526 127.597L148.125 126.099L146.625 123.498L144.025 125L145.526 127.597ZM110.077 148.084L111.578 150.682H111.578L110.077 148.084ZM107.344 147.351L109.943 145.852L107.344 147.351ZM83.6619 106.292L86.2606 104.793L84.7605 102.192L82.1608 103.694L83.6619 106.292ZM48.2135 126.778L46.7124 124.181L46.7124 124.181L48.2135 126.778ZM45.4804 126.045L42.8817 127.544L45.4804 126.045ZM0.611558 48.2533L-1.98716 49.7521L-1.98716 49.7521L0.611558 48.2533ZM1.34262 45.5222L2.84373 48.1196L1.34262 45.5222ZM84.3896 -0.156907C83.0096 -2.54943 79.95 -3.37163 77.5567 -1.9885L80.5589 3.20638C80.079 3.48372 79.4674 3.31812 79.1921 2.84087L84.3896 -0.156907ZM108.072 40.9027L84.3896 -0.156908L79.1921 2.84087L102.874 43.9004L108.072 40.9027ZM139.421 19.3175L103.972 39.8041L106.974 44.999L142.423 24.5124L139.421 19.3175ZM146.254 21.1491C144.874 18.7566 141.814 17.9344 139.421 19.3175L142.423 24.5124C141.943 24.7898 141.332 24.6242 141.056 24.1469L146.254 21.1491ZM169.936 62.2094L146.254 21.1491L141.056 24.1469L164.739 65.2071L169.936 62.2094ZM168.839 66.3057L204.288 45.8191L201.285 40.6242L165.837 61.1108L168.839 66.3057ZM204.288 45.8191C203.808 46.0964 203.196 45.9309 202.921 45.4536L208.118 42.4558C206.738 40.0633 203.679 39.2411 201.285 40.6242L204.288 45.8191ZM202.921 45.4536L247.79 123.246L252.987 120.248L208.118 42.4558L202.921 45.4536ZM247.79 123.246C247.515 122.769 247.677 122.157 248.156 121.88L251.158 127.075C253.549 125.694 254.365 122.637 252.987 120.248L247.79 123.246ZM248.156 121.88L170.441 166.794L173.443 171.988L251.158 127.075L248.156 121.88ZM170.441 166.794C170.921 166.516 171.533 166.682 171.808 167.159L166.61 170.157C167.99 172.549 171.05 173.372 173.443 171.988L170.441 166.794ZM171.808 167.159L148.125 126.099L142.927 129.096L166.61 170.157L171.808 167.159ZM111.578 150.682L147.027 130.195L144.025 125L108.576 145.487L111.578 150.682ZM104.745 148.85C106.125 151.243 109.185 152.065 111.578 150.682L108.576 145.487C109.056 145.209 109.667 145.375 109.943 145.852L104.745 148.85ZM81.0632 107.791L104.745 148.85L109.943 145.852L86.2606 104.793L81.0632 107.791ZM49.7146 129.376L85.163 108.889L82.1608 103.694L46.7124 124.181L49.7146 129.376ZM42.8817 127.544C44.2617 129.937 47.3213 130.759 49.7146 129.376L46.7124 124.181C47.1923 123.904 47.8039 124.069 48.0792 124.546L42.8817 127.544ZM-1.98716 49.7521L42.8817 127.544L48.0792 124.546L3.21028 46.7544L-1.98716 49.7521ZM-0.15849 42.9248C-2.54889 44.3062 -3.36545 47.3625 -1.98716 49.7521L3.21028 46.7544C3.48521 47.231 3.32306 47.8426 2.84373 48.1196L-0.15849 42.9248ZM77.5567 -1.98849L-0.15849 42.9248L2.84373 48.1196L80.5589 3.20637L77.5567 -1.98849Z" fill="#24242E" mask="url(#path-1-inside-1_10_237)"/>
</g>
</g>
<defs>
<filter id="filter0_d_10_237" x="0.343524" y="0.340408" width="256.313" height="173.319" filterUnits="userSpaceOnUse" color-interpolation-filters="sRGB">
<feFlood flood-opacity="0" result="BackgroundImageFix"/>
<feColorMatrix in="SourceAlpha" type="matrix" values="0 0 0 0 0 0 0 0 0 0 0 0 0 0 0 0 0 0 127 0" result="hardAlpha"/>
<feOffset dx="6" dy="4"/>
<feComposite in2="hardAlpha" operator="out"/>
<feColorMatrix type="matrix" values="0 0 0 0 0 0 0 0 0 0 0 0 0 0 0 0 0 0 1 0"/>
<feBlend mode="normal" in2="BackgroundImageFix" result="effect1_dropShadow_10_237"/>
<feBlend mode="normal" in="SourceGraphic" in2="effect1_dropShadow_10_237" result="shape"/>
</filter>
</defs>
</svg>
